<svg width="1512" height="982" viewBox="0 0 1512 982" fill="none" xmlns="http://www.w3.org/2000/svg">
<g clip-path="url(#clip0_7_79)">
<path d="M1512 0H0V982H1512V0Z" fill="white"/>
<path d="M1512 0H0V982H1512V0Z" fill="#1BC47D" fill-opacity="0.315533"/>
<mask id="mask0_7_79" style="mask-type:luminance" maskUnits="userSpaceOnUse" x="0" y="0" width="1512" height="982">
<path d="M1512 0H0V982H1512V0Z" fill="white"/>
</mask>
<g mask="url(#mask0_7_79)">
<g filter="url(#filter0_f_7_79)">
<path d="M1146.28 394.027H241.92V924.921H1146.28V394.027Z" fill="#18A0FB"/>
<path d="M1469.48 51.555H294.84V745.706H1469.48V51.555Z" fill="#18A0FB"/>
<path d="M1291.82 463.381H513.135V1109.05H1291.82V463.381Z" fill="#00C5DF"/>
<path d="M1315.44 173.078H449.82V783.759H1315.44V173.078Z" fill="#F2371F"/>
</g>
</g>
<g style="mix-blend-mode:overlay">
<path d="M1512 0H0V982H1512V0Z" fill="#808080"/>
</g>
</g>
<defs>
<filter id="filter0_f_7_79" x="-383.08" y="-573.445" width="2477.55" height="2307.49" filterUnits="userSpaceOnUse" color-interpolation-filters="sRGB">
<feFlood flood-opacity="0" result="BackgroundImageFix"/>
<feBlend mode="normal" in="SourceGraphic" in2="BackgroundImageFix" result="shape"/>
<feGaussianBlur stdDeviation="312.5" result="effect1_foregroundBlur_7_79"/>
</filter>
<clipPath id="clip0_7_79">
<rect width="1512" height="982" fill="white"/>
</clipPath>
</defs>
</svg>
